<svg width="39" height="39" viewBox="0 0 39 39" fill="none" xmlns="http://www.w3.org/2000/svg">
<path d="M29.277 26.7949C27.9208 26.7949 26.6892 27.3583 25.8048 28.2558L14.032 21.7176C14.3793 21.0494 14.5889 20.3025 14.5889 19.4967C14.5889 19.0185 14.4972 18.5664 14.3727 18.1275L25.9751 10.921C26.8399 11.7006 27.9732 12.1854 29.218 12.1854C31.904 12.1854 34.0922 9.99729 34.0922 7.31125C34.0922 4.62521 31.904 2.43707 29.218 2.43707C26.532 2.43707 24.3438 4.62521 24.3438 7.31125C24.3438 7.86812 24.4552 8.39222 24.6255 8.89012L13.128 16.0245C12.2501 15.1597 11.0446 14.616 9.70817 14.616C7.02212 14.616 4.83398 16.8041 4.83398 19.4902C4.83398 22.1762 7.02212 24.3643 9.70817 24.3643C10.6843 24.3643 11.5949 24.0695 12.3549 23.5716L24.5862 30.3653C24.4683 30.7846 24.3897 31.2105 24.3897 31.6625C24.3897 34.3485 26.5778 36.5367 29.2639 36.5367C31.9499 36.5367 34.138 34.3485 34.138 31.6625C34.138 28.9765 31.963 26.7949 29.277 26.7949ZM29.218 4.87416C30.561 4.87416 31.6551 5.96823 31.6551 7.31125C31.6551 8.65427 30.561 9.74834 29.218 9.74834C27.875 9.74834 26.7809 8.65427 26.7809 7.31125C26.7809 5.96823 27.875 4.87416 29.218 4.87416ZM7.27763 19.4967C7.27763 18.1537 8.3717 17.0596 9.71472 17.0596C11.0577 17.0596 12.1518 18.1537 12.1518 19.4967C12.1518 20.8397 11.0577 21.9338 9.71472 21.9338C8.3717 21.9338 7.27763 20.8397 7.27763 19.4967ZM29.277 34.1061C27.9339 34.1061 26.8399 33.0121 26.8399 31.6691C26.8399 30.326 27.9339 29.232 29.277 29.232C30.62 29.232 31.714 30.326 31.714 31.6691C31.714 33.0186 30.62 34.1061 29.277 34.1061Z" fill="#95979D"/>
</svg>
